<?xml version="1.0" encoding="UTF-8" standalone="no"?>
<!-- Created with Inkscape (http://www.inkscape.org/) -->
<svg
   xmlns:dc="http://purl.org/dc/elements/1.1/"
   xmlns:cc="http://web.resource.org/cc/"
   xmlns:rdf="http://www.w3.org/1999/02/22-rdf-syntax-ns#"
   xmlns:svg="http://www.w3.org/2000/svg"
   xmlns="http://www.w3.org/2000/svg"
   xmlns:sodipodi="http://inkscape.sourceforge.net/DTD/sodipodi-0.dtd"
   xmlns:inkscape="http://www.inkscape.org/namespaces/inkscape"
   width="48"
   height="48"
   id="svg2"
   sodipodi:version="0.32"
   inkscape:version="0.43"
   version="1.0"
   sodipodi:docbase="/home/yamaken/devel/uim/recovered-fdo/trunk/pixmaps"
   sodipodi:docname="ja_pocketbell.svg">
  <defs
     id="defs4" />
  <sodipodi:namedview
     id="base"
     pagecolor="#ffffff"
     bordercolor="#666666"
     borderopacity="1.0"
     inkscape:pageopacity="0.0"
     inkscape:pageshadow="2"
     inkscape:zoom="16.416667"
     inkscape:cx="24"
     inkscape:cy="24"
     inkscape:document-units="px"
     inkscape:current-layer="layer1"
     showgrid="true"
     inkscape:grid-points="true"
     gridspacingx="1.5px"
     gridspacingy="1.5px"
     gridempspacing="2"
     inkscape:grid-bbox="true"
     inkscape:window-width="914"
     inkscape:window-height="959"
     inkscape:window-x="186"
     inkscape:window-y="0" />
  <metadata
     id="metadata7">
    <rdf:RDF>
      <cc:Work
         rdf:about="">
        <dc:format>image/svg+xml</dc:format>
        <dc:type
           rdf:resource="http://purl.org/dc/dcmitype/StillImage" />
        <dc:creator>
          <cc:Agent>
            <dc:title>YamaKen &lt;yamakenATbp.iij4u.or.jp&gt;</dc:title>
          </cc:Agent>
        </dc:creator>
        <dc:title>ja_pocketbell.svg</dc:title>
        <dc:date>2006-05-23</dc:date>
        <dc:description>Japanese kana input method icon for pocketbell-input.</dc:description>
        <dc:rights>
          <cc:Agent>
            <dc:title>YamaKen &lt;yamakenATbp.iij4u.or.jp&gt;</dc:title>
          </cc:Agent>
        </dc:rights>
        <dc:publisher>
          <cc:Agent>
            <dc:title>uim Project</dc:title>
          </cc:Agent>
        </dc:publisher>
        <dc:language>ja</dc:language>
      </cc:Work>
    </rdf:RDF>
  </metadata>
  <g
     inkscape:label="Layer 1"
     inkscape:groupmode="layer"
     id="layer1">
    <rect
       style="opacity:0.6;fill:#c5d5e9;fill-opacity:1;fill-rule:evenodd;stroke:#2d4461;stroke-width:6;stroke-linecap:round;stroke-linejoin:miter;stroke-miterlimit:4;stroke-dasharray:none;stroke-dashoffset:0;stroke-opacity:1"
       id="rect2989"
       width="42"
       height="42"
       x="3"
       y="3"
       ry="8.999896"
       rx="8.999896" />
    <g
       id="g6238"
       transform="matrix(4e-2,0,0,-4e-2,11.56,39.72)">
      <path
         id="path6240"
         d="M 329,758 C 431.66667,758 503,725.33333 543,660 C 562.33333,628.66667 572,591.33333 572,548 C 572,488 550.33333,428.66667 507,370 C 459,306 369.33333,219 238,109 L 238,108 L 582,108 L 582,18 L 86,18 L 86,112 C 260.66667,250.66667 370.66667,352 416,416 C 444.66667,456 459,496.66667 459,538 C 459,602 429.66667,642.33333 371,659 C 354.33333,663.66667 335.33333,666 314,666 C 252,666 187.33333,639 120,585 L 88,672 C 140,716.66667 204.33333,744.33333 281,755 C 297,757 313,758 329,758 z "
         style="fill:currentColor" />
    </g>
  </g>
</svg>
