<?xml version="1.0" encoding="UTF-8" standalone="no"?>
<svg
   xmlns:dc="http://purl.org/dc/elements/1.1/"
   xmlns:cc="http://creativecommons.org/ns#"
   xmlns:rdf="http://www.w3.org/1999/02/22-rdf-syntax-ns#"
   xmlns:svg="http://www.w3.org/2000/svg"
   xmlns="http://www.w3.org/2000/svg"
   xmlns:sodipodi="http://sodipodi.sourceforge.net/DTD/sodipodi-0.dtd"
   xmlns:inkscape="http://www.inkscape.org/namespaces/inkscape"
   version="1.0"
   id="layer_1"
   x="0px"
   y="0px"
   width="52.5"
   height="52.5"
   viewBox="0 0 52.5 39.839"
   enable-background="new 0 0 52.5 39.839"
   xml:space="preserve"
   sodipodi:version="0.32"
   inkscape:version="0.46"
   sodipodi:docname="wb86.svg"
   inkscape:output_extension="org.inkscape.output.svg.inkscape"><metadata
   id="metadata2442"><rdf:RDF><cc:Work
       rdf:about=""><dc:format>image/svg+xml</dc:format><dc:type
         rdf:resource="http://purl.org/dc/dcmitype/StillImage" /></cc:Work></rdf:RDF></metadata><defs
   id="defs2440"><inkscape:perspective
     sodipodi:type="inkscape:persp3d"
     inkscape:vp_x="0 : 19.9195 : 1"
     inkscape:vp_y="0 : 1000 : 0"
     inkscape:vp_z="52.5 : 19.9195 : 1"
     inkscape:persp3d-origin="26.25 : 13.279667 : 1"
     id="perspective2444" /></defs><sodipodi:namedview
   inkscape:window-height="861"
   inkscape:window-width="795"
   inkscape:pageshadow="2"
   inkscape:pageopacity="0.0"
   guidetolerance="10.0"
   gridtolerance="10.0"
   objecttolerance="10.0"
   borderopacity="1.0"
   bordercolor="#666666"
   pagecolor="#ffffff"
   id="base"
   showgrid="false"
   inkscape:zoom="10.647619"
   inkscape:cx="26.25"
   inkscape:cy="24.830235"
   inkscape:window-x="1851"
   inkscape:window-y="0"
   inkscape:current-layer="layer_1" />
<g
   id="g2435"
   transform="translate(-0.3756708,0)">
	<path
   d="M 32.142,31.564 C 35.119,31.339 37.214,31.131 38.43,30.939 C 39.902,30.748 41.294,30.652 42.607,30.652 C 43.919,30.652 45.182,30.996 46.399,31.683 C 47.614,32.372 48.222,33.003 48.222,33.579 C 48.222,34.315 47.486,34.683 46.014,34.683 C 45.535,34.683 44.863,34.612 43.998,34.467 C 43.134,34.323 41.437,34.188 38.91,34.059 C 36.382,33.932 33.517,33.868 30.318,33.868 C 27.118,33.868 23.725,34.084 20.141,34.515 C 16.557,34.948 13.917,35.396 12.222,35.86 C 10.525,36.324 9.366,36.555 8.742,36.555 C 8.118,36.555 7.39,36.26 6.558,35.667 C 5.725,35.075 5.31,34.628 5.31,34.323 C 5.31,34.019 5.614,33.867 6.222,33.867 L 7.182,33.915 C 8.014,33.915 11.646,33.548 18.078,32.811 C 19.006,30.411 20.286,26.443 21.918,20.907 C 19.165,21.579 17.478,21.915 16.854,21.915 C 16.23,21.915 15.574,21.691 14.887,21.243 C 14.198,20.796 13.855,20.483 13.855,20.307 C 13.855,20.131 13.951,20.027 14.143,19.995 C 14.335,19.963 14.863,19.947 15.727,19.947 C 16.591,19.947 18.814,19.659 22.399,19.083 C 23.582,14.763 24.174,11.708 24.174,9.915 C 24.174,9.403 24.126,8.939 24.03,8.523 C 22.206,8.747 20.878,8.859 20.046,8.859 C 19.214,8.859 18.414,8.651 17.647,8.235 C 16.878,7.819 16.495,7.484 16.495,7.227 C 16.495,6.971 16.974,6.843 17.934,6.843 C 18.894,6.843 20.638,6.644 23.166,6.243 C 25.693,5.843 28.029,5.347 30.174,4.755 C 32.318,4.163 33.902,3.867 34.926,3.867 C 35.95,3.867 36.846,4.075 37.614,4.491 C 38.382,4.908 38.765,5.307 38.765,5.691 C 38.765,6.075 38.429,6.371 37.757,6.579 C 37.085,6.787 33.117,7.339 25.853,8.235 C 27.293,9.068 28.013,9.771 28.013,10.347 C 28.013,10.539 27.877,10.883 27.606,11.379 C 27.334,11.876 27.021,12.668 26.669,13.755 C 26.316,14.843 25.82,16.475 25.181,18.651 C 28.956,18.011 31.061,17.516 31.493,17.163 C 31.925,16.811 32.436,16.635 33.029,16.635 C 33.621,16.635 34.493,16.916 35.645,17.475 C 36.796,18.035 37.373,18.555 37.373,19.035 C 37.373,19.291 37.125,19.651 36.629,20.115 C 36.133,20.579 35.709,21.195 35.358,21.963 C 35.005,22.732 34.534,24.188 33.942,26.331 C 33.35,28.476 32.749,30.219 32.142,31.564 z M 29.55,31.755 C 29.998,30.411 30.534,28.243 31.158,25.251 C 31.782,22.259 32.094,20.507 32.094,19.995 C 32.094,19.675 31.966,19.515 31.71,19.515 C 30.781,19.515 28.414,19.819 24.606,20.427 C 22.621,26.379 21.246,30.411 20.477,32.523 C 24.03,32.171 27.054,31.916 29.55,31.755 z"
   id="path2437" />
</g>
</svg>
