<?xml version="1.0" encoding="UTF-8" standalone="no"?>
<svg
   xmlns:dc="http://purl.org/dc/elements/1.1/"
   xmlns:cc="http://creativecommons.org/ns#"
   xmlns:rdf="http://www.w3.org/1999/02/22-rdf-syntax-ns#"
   xmlns:svg="http://www.w3.org/2000/svg"
   xmlns="http://www.w3.org/2000/svg"
   xmlns:sodipodi="http://sodipodi.sourceforge.net/DTD/sodipodi-0.dtd"
   xmlns:inkscape="http://www.inkscape.org/namespaces/inkscape"
   version="1.0"
   id="layer_1"
   x="0px"
   y="0px"
   width="52.5"
   height="52.5"
   viewBox="0 0 52.5 39.839"
   enable-background="new 0 0 52.5 39.839"
   xml:space="preserve"
   sodipodi:version="0.32"
   inkscape:version="0.46"
   sodipodi:docname="zm.svg"
   inkscape:output_extension="org.inkscape.output.svg.inkscape"><metadata
   id="metadata10"><rdf:RDF><cc:Work
       rdf:about=""><dc:format>image/svg+xml</dc:format><dc:type
         rdf:resource="http://purl.org/dc/dcmitype/StillImage" /></cc:Work></rdf:RDF></metadata><defs
   id="defs8"><inkscape:perspective
     sodipodi:type="inkscape:persp3d"
     inkscape:vp_x="0 : 19.9195 : 1"
     inkscape:vp_y="0 : 1000 : 0"
     inkscape:vp_z="52.5 : 19.9195 : 1"
     inkscape:persp3d-origin="26.25 : 13.279667 : 1"
     id="perspective12" /></defs><sodipodi:namedview
   inkscape:window-height="772"
   inkscape:window-width="752"
   inkscape:pageshadow="2"
   inkscape:pageopacity="0.0"
   guidetolerance="10.0"
   gridtolerance="10.0"
   objecttolerance="10.0"
   borderopacity="1.0"
   bordercolor="#666666"
   pagecolor="#ffffff"
   id="base"
   showgrid="false"
   inkscape:zoom="10.647619"
   inkscape:cx="23.244633"
   inkscape:cy="27.015742"
   inkscape:window-x="1044"
   inkscape:window-y="20"
   inkscape:current-layer="layer_1" />
<g
   id="g3"
   transform="translate(0.1878354,0)">
	<path
   d="M 18.79,11.452 C 18.758,14.076 18.629,16.604 18.406,19.036 C 22.566,19.004 25.958,18.86 28.582,18.604 L 28.582,23.115 C 26.054,22.828 22.534,22.668 18.022,22.636 C 17.51,26.604 16.565,29.685 15.19,31.876 C 13.814,34.068 11.446,36.685 8.086,39.724 C 7.318,38.573 6.022,37.58 4.198,36.748 C 6.917,35.66 9.173,33.876 10.966,31.396 C 12.758,28.916 13.878,25.996 14.326,22.635 C 10.358,22.667 7.19,22.827 4.822,23.114 L 4.822,18.603 C 7.446,18.859 10.726,19.003 14.662,19.035 C 14.854,16.827 14.918,14.299 14.854,11.451 C 11.333,11.483 8.501,11.643 6.358,11.931 L 6.358,7.467 C 9.206,7.787 13.158,7.931 18.214,7.899 C 19.942,4.316 21.094,1.051 21.67,-1.893 C 22.31,-1.573 23.038,-1.285 23.854,-1.029 C 24.67,-0.772 25.238,-0.621 25.558,-0.573 C 25.878,-0.525 26.038,-0.388 26.038,-0.165 C 26.038,0.059 25.853,0.323 25.486,0.627 C 25.118,0.932 24.581,1.731 23.878,3.027 C 23.174,4.323 22.406,5.931 21.574,7.851 C 23.686,7.819 25.67,7.691 27.526,7.467 L 27.526,11.931 C 25.35,11.644 22.438,11.484 18.79,11.452 z M 15.766,5.452 L 12.07,7.036 C 11.142,4.476 9.846,2.268 8.182,0.412 L 11.926,-1.124 C 13.334,1.628 14.614,3.819 15.766,5.452 z M 27.43,34.587 L 23.638,36.891 C 22.133,33.915 20.021,30.843 17.302,27.675 L 20.278,25.946 C 22.613,28.347 24.998,31.228 27.43,34.587 z M 40.63,15.627 C 42.485,17.579 43.846,19.179 44.71,20.427 C 45.574,21.675 46.157,22.875 46.462,24.027 C 46.766,25.179 46.918,26.548 46.918,28.131 C 46.918,29.714 46.661,30.947 46.15,31.827 C 45.637,32.707 44.702,33.443 43.341,34.035 C 41.981,34.628 39.988,35.083 37.365,35.403 C 37.396,35.05 37.413,34.715 37.413,34.394 C 37.413,32.859 36.82,31.498 35.637,30.315 C 36.853,30.635 38.013,30.794 39.117,30.794 C 40.221,30.794 41.125,30.523 41.829,29.979 C 42.532,29.434 42.885,28.699 42.885,27.77 C 42.885,25.499 42.389,23.467 41.398,21.674 C 40.405,19.882 38.918,18.17 36.933,16.538 L 40.677,4.73 L 34.101,4.73 L 34.101,41.978 L 30.261,41.978 C 30.389,38.554 30.453,35.082 30.453,31.562 L 30.453,8.332 C 30.453,4.108 30.405,1.644 30.308,0.94 C 32.26,1.036 34.884,1.084 38.18,1.084 C 41.476,1.084 44.116,1.036 46.1,0.94 L 40.63,15.627 z"
   id="path5" />
</g>
</svg>
