<?xml version="1.0" encoding="UTF-8" standalone="no"?>
<!-- Created with Inkscape (http://www.inkscape.org/) -->
<svg
   xmlns:dc="http://purl.org/dc/elements/1.1/"
   xmlns:cc="http://creativecommons.org/ns#"
   xmlns:rdf="http://www.w3.org/1999/02/22-rdf-syntax-ns#"
   xmlns:svg="http://www.w3.org/2000/svg"
   xmlns="http://www.w3.org/2000/svg"
   xmlns:sodipodi="http://sodipodi.sourceforge.net/DTD/sodipodi-0.dtd"
   xmlns:inkscape="http://www.inkscape.org/namespaces/inkscape"
   width="52.5"
   height="52.5"
   id="svg2424"
   sodipodi:version="0.32"
   inkscape:version="0.46"
   version="1.0"
   sodipodi:docname="zm_dark_background.svg"
   inkscape:output_extension="org.inkscape.output.svg.inkscape">
  <defs
     id="defs2426">
    <inkscape:perspective
       sodipodi:type="inkscape:persp3d"
       inkscape:vp_x="0 : 32 : 1"
       inkscape:vp_y="0 : 1000 : 0"
       inkscape:vp_z="64 : 32 : 1"
       inkscape:persp3d-origin="32 : 21.333333 : 1"
       id="perspective2432" />
  </defs>
  <sodipodi:namedview
     id="base"
     pagecolor="#ffffff"
     bordercolor="#666666"
     borderopacity="1.0"
     inkscape:pageopacity="0.0"
     inkscape:pageshadow="2"
     inkscape:zoom="10.65"
     inkscape:cx="30.591549"
     inkscape:cy="32"
     inkscape:current-layer="layer1"
     showgrid="true"
     inkscape:document-units="px"
     inkscape:grid-bbox="true"
     showguides="true"
     inkscape:window-width="868"
     inkscape:window-height="901"
     inkscape:window-x="1147"
     inkscape:window-y="62">
    <inkscape:grid
       type="xygrid"
       id="grid2436"
       visible="true"
       enabled="true" />
  </sodipodi:namedview>
  <metadata
     id="metadata2429">
    <rdf:RDF>
      <cc:Work
         rdf:about="">
        <dc:format>image/svg+xml</dc:format>
        <dc:type
           rdf:resource="http://purl.org/dc/dcmitype/StillImage" />
      </cc:Work>
    </rdf:RDF>
  </metadata>
  <g
     id="layer1"
     inkscape:label="Layer 1"
     inkscape:groupmode="layer">
    <g
       id="g2381"
       transform="translate(5.7980538,5.3540358)"
       style="fill:#eae3d1;fill-opacity:1">
      <path
         d="M 12.773,19.036 L 12.867,18.145 C 12.961,17.223 13.008,16.59 13.008,16.247 C 13.008,15.731 12.867,15.13 12.586,14.442 C 11.274,14.676 10.055,14.794 8.93,14.794 C 7.992,14.794 7.032,14.661 6.047,14.396 C 5.062,14.131 4.57,13.864 4.57,13.599 C 4.57,13.318 5.281,13.146 6.703,13.083 C 8.875,12.974 11.851,12.411 15.633,11.395 L 18.094,10.739 C 18.813,10.551 19.422,10.458 19.922,10.458 C 21.281,10.458 21.977,10.755 22.008,11.349 C 22.039,11.911 19.414,12.826 14.133,14.091 C 15.305,14.779 15.891,15.443 15.891,16.083 C 15.891,16.442 15.805,16.895 15.633,17.442 L 15.281,18.637 C 16.406,18.418 17.547,18.16 18.703,17.864 C 20.203,17.473 21.32,17.278 22.055,17.278 C 23.383,17.278 24.047,17.622 24.047,18.309 C 24.047,18.653 23.703,18.895 23.016,19.036 L 22.055,19.247 C 21.399,19.372 20.422,19.528 19.125,19.716 C 17.563,19.935 16.187,20.177 15,20.443 C 14.703,21.927 14.383,23.185 14.039,24.216 C 14.555,24.388 14.945,24.513 15.211,24.591 C 17.555,25.294 19.145,26.044 19.981,26.841 C 20.817,27.638 21.235,28.786 21.235,30.286 C 21.235,31.208 20.985,31.669 20.485,31.669 C 19.735,31.669 18.352,30.325 16.337,27.638 C 15.509,26.544 14.696,25.661 13.899,24.99 C 12.258,29.646 9.805,32.881 6.54,34.693 L 4.43,35.864 C 3.868,36.176 3.368,36.333 2.93,36.333 C 2.618,36.333 2.453,36.239 2.438,36.052 C 2.422,35.927 2.805,35.544 3.586,34.904 C 8.789,30.685 11.75,25.982 12.469,20.795 C 11.953,20.967 11.617,21.076 11.461,21.123 L 9.211,21.779 C 8.711,21.935 7.945,22.209 6.914,22.599 C 5.273,23.224 4.18,23.537 3.633,23.537 C 2.992,23.537 2.227,23.248 1.336,22.67 C 0.445,22.092 0,21.599 0,21.192 C 0,20.723 0.516,20.489 1.547,20.489 C 1.641,20.489 2.633,20.38 4.524,20.161 L 8.133,19.763 C 8.414,19.732 9.391,19.583 11.063,19.318 C 11.438,19.255 12.008,19.161 12.773,19.036 z M 6.375,4.411 C 8.047,4.411 9.402,4.751 10.441,5.431 C 11.48,6.111 12,6.997 12,8.091 C 12,9.232 11.641,9.802 10.922,9.802 C 10.36,9.802 9.758,9.333 9.117,8.396 C 8.648,7.692 8.242,7.122 7.898,6.685 C 7.18,5.747 6.672,4.989 6.375,4.411 z M 17.695,0.005 C 18.32,-0.042 19.211,0.263 20.367,0.919 C 21.523,1.575 22.101,2.099 22.101,2.489 C 22.101,2.723 21.773,3.114 21.117,3.661 C 20.679,4.02 20.226,4.52 19.758,5.161 L 18.539,6.849 C 18.07,7.474 17.695,7.951 17.414,8.279 C 16.789,8.967 16.43,9.381 16.336,9.521 C 15.93,10.099 15.586,10.388 15.305,10.388 C 15.117,10.388 15,10.263 14.953,10.013 L 14.953,9.966 L 15.07,9.661 C 15.117,9.583 15.281,9.208 15.562,8.536 L 16.335,6.731 C 16.96,5.247 17.273,3.989 17.273,2.958 C 17.273,2.224 17.125,1.56 16.828,0.966 C 16.734,0.794 16.687,0.685 16.687,0.638 C 16.688,0.263 17.023,0.052 17.695,0.005 z M 32.062,17.536 C 35.015,19.255 37.085,20.88 38.273,22.411 C 39.461,23.942 40.054,25.755 40.054,27.849 C 40.054,29.037 39.859,30.111 39.468,31.072 C 39.077,32.033 38.64,32.513 38.156,32.513 C 37.844,32.513 37.164,32.044 36.117,31.107 C 35.461,30.529 34.844,30.037 34.265,29.63 L 31.335,27.544 C 30.882,27.216 30.507,26.966 30.21,26.794 C 29.898,26.591 29.741,26.45 29.741,26.372 C 29.741,26.169 29.983,26.067 30.468,26.067 C 30.593,26.067 30.898,26.114 31.382,26.208 L 33.585,26.606 C 35.319,26.918 36.296,27.075 36.515,27.075 C 36.796,27.075 36.937,26.903 36.937,26.559 C 36.937,24.168 35.593,21.887 32.906,19.715 L 31.242,18.356 C 30.898,18.075 30.726,17.825 30.726,17.606 C 30.726,17.512 30.812,17.325 30.984,17.044 L 31.687,15.567 L 32.789,13.34 L 33.68,11.418 C 34.024,10.871 34.196,10.41 34.196,10.035 C 34.196,9.691 34.048,9.512 33.751,9.496 C 33.673,9.496 33.548,9.535 33.376,9.613 C 33.11,9.722 32.642,9.855 31.97,10.011 L 30.212,10.409 C 29.884,10.487 28.931,10.597 27.353,10.737 C 27.681,12.284 27.845,13.94 27.845,15.706 L 28.22,32.206 L 28.15,34.526 L 28.056,37.315 C 28.056,39.049 27.884,40.717 27.54,42.319 C 27.196,43.921 26.837,44.721 26.462,44.721 C 26.056,44.721 25.853,44.252 25.853,43.315 C 25.853,43.284 25.822,42.807 25.759,41.885 C 25.728,41.447 25.712,40.604 25.712,39.354 L 25.642,36.096 L 25.314,16.315 C 25.314,14.346 25.142,12.877 24.798,11.909 L 24.306,10.597 L 24,9.661 C 23.938,9.489 23.906,9.38 23.906,9.333 C 23.906,8.864 24.195,8.63 24.773,8.63 C 24.945,8.63 25.132,8.669 25.335,8.747 C 26.241,9.091 26.929,9.263 27.397,9.263 C 29.897,9.263 31.991,8.701 33.678,7.575 L 35.248,6.544 C 35.56,6.341 35.896,6.239 36.256,6.239 C 36.975,6.239 37.818,6.524 38.787,7.094 C 39.756,7.664 40.24,8.153 40.24,8.559 C 40.24,8.747 40.076,8.934 39.748,9.121 L 38.553,9.824 C 36.898,10.81 34.734,13.38 32.062,17.536 z"
         id="path2383"
         style="fill:#eae3d1;fill-opacity:1" />
    </g>
  </g>
</svg>
